<?xml version="1.0" encoding="UTF-8"?>
<svg width="400" height="300" viewBox="0 0 400 300" xmlns="http://www.w3.org/2000/svg">
  <!-- Background -->
  <rect width="400" height="300" fill="#f5f6fa" rx="10" ry="10"/>
  
  <!-- Dashboard Background -->
  <rect x="40" y="60" width="320" height="180" fill="white" rx="8" ry="8" stroke="#dcdde1" stroke-width="2"/>
  
  <!-- Chart 1: Bar chart -->
  <rect x="60" y="100" width="130" height="120" fill="#f1f2f6" rx="4" ry="4"/>
  <rect x="70" y="170" width="15" height="40" fill="#4a69bd" rx="2" ry="2"/>
  <rect x="95" y="150" width="15" height="60" fill="#4a69bd" rx="2" ry="2"/>
  <rect x="120" y="130" width="15" height="80" fill="#4a69bd" rx="2" ry="2"/>
  <rect x="145" y="160" width="15" height="50" fill="#4a69bd" rx="2" ry="2"/>
  <rect x="170" y="140" width="15" height="70" fill="#4a69bd" rx="2" ry="2"/>
  <line x1="60" y1="210" x2="190" y2="210" stroke="#dcdde1" stroke-width="1"/>
  
  <!-- Chart 2: Pie chart -->
  <circle cx="275" cy="160" r="50" fill="#f1f2f6"/>
  <path d="M275 160 L275 110 A50 50 0 0 1 325 160 Z" fill="#6ab04c"/>
  <path d="M275 160 L325 160 A50 50 0 0 1 275 210 Z" fill="#eb4d4b"/>
  <path d="M275 160 L275 210 A50 50 0 0 1 225 160 Z" fill="#f0932b"/>
  <path d="M275 160 L225 160 A50 50 0 0 1 275 110 Z" fill="#4a69bd"/>
  
  <!-- Dashboard Header -->
  <text x="60" y="85" font-family="Arial" font-size="14" font-weight="bold" fill="#2f3542">Financial Dashboard</text>
  
  <!-- Money Icons -->
  <circle cx="50" cy="40" r="15" fill="#4a69bd" opacity="0.7"/>
  <text x="50" y="45" font-family="Arial" font-size="14" font-weight="bold" fill="white" text-anchor="middle">₹</text>
  
  <circle cx="350" cy="40" r="15" fill="#6ab04c" opacity="0.7"/>
  <text x="350" y="45" font-family="Arial" font-size="14" font-weight="bold" fill="white" text-anchor="middle">₹</text>
  
  <circle cx="200" cy="20" r="15" fill="#f0932b" opacity="0.7"/>
  <text x="200" y="25" font-family="Arial" font-size="14" font-weight="bold" fill="white" text-anchor="middle">₹</text>
  
  <!-- Decorative Elements -->
  <path d="M20 260 Q100 220 200 260 T380 260" stroke="#4a69bd" stroke-width="2" fill="none" opacity="0.3"/>
  <path d="M20 270 Q100 230 200 270 T380 270" stroke="#6ab04c" stroke-width="2" fill="none" opacity="0.3"/>
</svg>